<mxfile host="app.diagrams.net" modified="2024-07-01T20:01:49.439Z" agent="Mozilla/5.0 (Windows NT 10.0; Win64; x64) AppleWebKit/537.36 (KHTML, like Gecko) Chrome/126.0.0.0 Safari/537.36" etag="plMj2uhcDOvRCGXoEkQg" version="24.6.4" type="github">
  <diagram name="Page-1" id="W4K3xNP9Yh5l4gG1lMJ6">
    <mxGraphModel dx="1425" dy="833" grid="1" gridSize="10" guides="1" tooltips="1" connect="1" arrows="1" fold="1" page="1" pageScale="1" pageWidth="850" pageHeight="1100" math="0" shadow="0">
      <root>
        <mxCell id="0" />
        <mxCell id="1" parent="0" />
        <mxCell id="MxUl4SSNpLDomFaE2vCG-1" value="" style="shape=mxgraph.mockup.containers.marginRect;rectMarginTop=10;strokeColor=#666666;strokeWidth=1;dashed=0;rounded=1;arcSize=5;recursiveResize=0;html=1;whiteSpace=wrap;" vertex="1" parent="1">
          <mxGeometry x="60" y="190" width="410" height="250" as="geometry" />
        </mxCell>
        <mxCell id="MxUl4SSNpLDomFaE2vCG-2" value="Data Requests" style="shape=rect;strokeColor=none;fillColor=#008cff;strokeWidth=1;dashed=0;rounded=1;arcSize=20;fontColor=#ffffff;fontSize=17;spacing=2;spacingTop=-2;align=left;autosize=1;spacingLeft=4;resizeWidth=0;resizeHeight=0;perimeter=none;html=1;whiteSpace=wrap;" vertex="1" parent="MxUl4SSNpLDomFaE2vCG-1">
          <mxGeometry x="5" width="215" height="30" as="geometry" />
        </mxCell>
        <mxCell id="MxUl4SSNpLDomFaE2vCG-24" value="" style="group" vertex="1" connectable="0" parent="MxUl4SSNpLDomFaE2vCG-1">
          <mxGeometry x="20" y="90" width="360" height="80" as="geometry" />
        </mxCell>
        <mxCell id="MxUl4SSNpLDomFaE2vCG-14" value="" style="shape=table;html=1;whiteSpace=wrap;startSize=0;container=1;collapsible=0;childLayout=tableLayout;strokeWidth=2;" vertex="1" parent="MxUl4SSNpLDomFaE2vCG-24">
          <mxGeometry x="180" y="-40" width="180" height="80" as="geometry" />
        </mxCell>
        <mxCell id="MxUl4SSNpLDomFaE2vCG-15" value="" style="shape=tableRow;horizontal=0;startSize=0;swimlaneHead=0;swimlaneBody=0;top=0;left=0;bottom=0;right=0;collapsible=0;dropTarget=0;fillColor=none;points=[[0,0.5],[1,0.5]];portConstraint=eastwest;" vertex="1" parent="MxUl4SSNpLDomFaE2vCG-14">
          <mxGeometry width="180" height="27" as="geometry" />
        </mxCell>
        <mxCell id="MxUl4SSNpLDomFaE2vCG-16" value="Requestor" style="shape=partialRectangle;html=1;whiteSpace=wrap;connectable=0;fillColor=none;top=0;left=0;bottom=0;right=0;overflow=hidden;fontStyle=1" vertex="1" parent="MxUl4SSNpLDomFaE2vCG-15">
          <mxGeometry width="90" height="27" as="geometry">
            <mxRectangle width="90" height="27" as="alternateBounds" />
          </mxGeometry>
        </mxCell>
        <mxCell id="MxUl4SSNpLDomFaE2vCG-17" value="Status" style="shape=partialRectangle;html=1;whiteSpace=wrap;connectable=0;fillColor=none;top=0;left=0;bottom=0;right=0;overflow=hidden;fontStyle=1" vertex="1" parent="MxUl4SSNpLDomFaE2vCG-15">
          <mxGeometry x="90" width="90" height="27" as="geometry">
            <mxRectangle width="90" height="27" as="alternateBounds" />
          </mxGeometry>
        </mxCell>
        <mxCell id="MxUl4SSNpLDomFaE2vCG-18" value="" style="shape=tableRow;horizontal=0;startSize=0;swimlaneHead=0;swimlaneBody=0;top=0;left=0;bottom=0;right=0;collapsible=0;dropTarget=0;fillColor=none;points=[[0,0.5],[1,0.5]];portConstraint=eastwest;" vertex="1" parent="MxUl4SSNpLDomFaE2vCG-14">
          <mxGeometry y="27" width="180" height="26" as="geometry" />
        </mxCell>
        <mxCell id="MxUl4SSNpLDomFaE2vCG-19" value="row 1, cell 1" style="shape=partialRectangle;html=1;whiteSpace=wrap;connectable=0;fillColor=none;top=0;left=0;bottom=0;right=0;overflow=hidden;" vertex="1" parent="MxUl4SSNpLDomFaE2vCG-18">
          <mxGeometry width="90" height="26" as="geometry">
            <mxRectangle width="90" height="26" as="alternateBounds" />
          </mxGeometry>
        </mxCell>
        <mxCell id="MxUl4SSNpLDomFaE2vCG-20" value="row 1, cell 2" style="shape=partialRectangle;html=1;whiteSpace=wrap;connectable=0;fillColor=none;top=0;left=0;bottom=0;right=0;overflow=hidden;" vertex="1" parent="MxUl4SSNpLDomFaE2vCG-18">
          <mxGeometry x="90" width="90" height="26" as="geometry">
            <mxRectangle width="90" height="26" as="alternateBounds" />
          </mxGeometry>
        </mxCell>
        <mxCell id="MxUl4SSNpLDomFaE2vCG-21" value="" style="shape=tableRow;horizontal=0;startSize=0;swimlaneHead=0;swimlaneBody=0;top=0;left=0;bottom=0;right=0;collapsible=0;dropTarget=0;fillColor=none;points=[[0,0.5],[1,0.5]];portConstraint=eastwest;" vertex="1" parent="MxUl4SSNpLDomFaE2vCG-14">
          <mxGeometry y="53" width="180" height="27" as="geometry" />
        </mxCell>
        <mxCell id="MxUl4SSNpLDomFaE2vCG-22" value="row 2, cell 1" style="shape=partialRectangle;html=1;whiteSpace=wrap;connectable=0;fillColor=none;top=0;left=0;bottom=0;right=0;overflow=hidden;" vertex="1" parent="MxUl4SSNpLDomFaE2vCG-21">
          <mxGeometry width="90" height="27" as="geometry">
            <mxRectangle width="90" height="27" as="alternateBounds" />
          </mxGeometry>
        </mxCell>
        <mxCell id="MxUl4SSNpLDomFaE2vCG-23" value="row 2, cell 2" style="shape=partialRectangle;html=1;whiteSpace=wrap;connectable=0;fillColor=none;top=0;left=0;bottom=0;right=0;overflow=hidden;" vertex="1" parent="MxUl4SSNpLDomFaE2vCG-21">
          <mxGeometry x="90" width="90" height="27" as="geometry">
            <mxRectangle width="90" height="27" as="alternateBounds" />
          </mxGeometry>
        </mxCell>
        <mxCell id="MxUl4SSNpLDomFaE2vCG-4" value="" style="shape=table;html=1;whiteSpace=wrap;startSize=0;container=1;collapsible=0;childLayout=tableLayout;strokeWidth=2;" vertex="1" parent="MxUl4SSNpLDomFaE2vCG-1">
          <mxGeometry x="20" y="50" width="180" height="80" as="geometry" />
        </mxCell>
        <mxCell id="MxUl4SSNpLDomFaE2vCG-5" value="" style="shape=tableRow;horizontal=0;startSize=0;swimlaneHead=0;swimlaneBody=0;top=0;left=0;bottom=0;right=0;collapsible=0;dropTarget=0;fillColor=none;points=[[0,0.5],[1,0.5]];portConstraint=eastwest;" vertex="1" parent="MxUl4SSNpLDomFaE2vCG-4">
          <mxGeometry width="180" height="27" as="geometry" />
        </mxCell>
        <mxCell id="MxUl4SSNpLDomFaE2vCG-6" value="DR #" style="shape=partialRectangle;html=1;whiteSpace=wrap;connectable=0;fillColor=none;top=0;left=0;bottom=0;right=0;overflow=hidden;fontStyle=1" vertex="1" parent="MxUl4SSNpLDomFaE2vCG-5">
          <mxGeometry width="90" height="27" as="geometry">
            <mxRectangle width="90" height="27" as="alternateBounds" />
          </mxGeometry>
        </mxCell>
        <mxCell id="MxUl4SSNpLDomFaE2vCG-7" value="Title" style="shape=partialRectangle;html=1;whiteSpace=wrap;connectable=0;fillColor=none;top=0;left=0;bottom=0;right=0;overflow=hidden;fontStyle=1" vertex="1" parent="MxUl4SSNpLDomFaE2vCG-5">
          <mxGeometry x="90" width="90" height="27" as="geometry">
            <mxRectangle width="90" height="27" as="alternateBounds" />
          </mxGeometry>
        </mxCell>
        <mxCell id="MxUl4SSNpLDomFaE2vCG-8" value="" style="shape=tableRow;horizontal=0;startSize=0;swimlaneHead=0;swimlaneBody=0;top=0;left=0;bottom=0;right=0;collapsible=0;dropTarget=0;fillColor=none;points=[[0,0.5],[1,0.5]];portConstraint=eastwest;" vertex="1" parent="MxUl4SSNpLDomFaE2vCG-4">
          <mxGeometry y="27" width="180" height="26" as="geometry" />
        </mxCell>
        <mxCell id="MxUl4SSNpLDomFaE2vCG-9" value="row 1, cell 1" style="shape=partialRectangle;html=1;whiteSpace=wrap;connectable=0;fillColor=none;top=0;left=0;bottom=0;right=0;overflow=hidden;" vertex="1" parent="MxUl4SSNpLDomFaE2vCG-8">
          <mxGeometry width="90" height="26" as="geometry">
            <mxRectangle width="90" height="26" as="alternateBounds" />
          </mxGeometry>
        </mxCell>
        <mxCell id="MxUl4SSNpLDomFaE2vCG-10" value="link" style="shape=partialRectangle;html=1;whiteSpace=wrap;connectable=0;fillColor=none;top=0;left=0;bottom=0;right=0;overflow=hidden;" vertex="1" parent="MxUl4SSNpLDomFaE2vCG-8">
          <mxGeometry x="90" width="90" height="26" as="geometry">
            <mxRectangle width="90" height="26" as="alternateBounds" />
          </mxGeometry>
        </mxCell>
        <mxCell id="MxUl4SSNpLDomFaE2vCG-11" value="" style="shape=tableRow;horizontal=0;startSize=0;swimlaneHead=0;swimlaneBody=0;top=0;left=0;bottom=0;right=0;collapsible=0;dropTarget=0;fillColor=none;points=[[0,0.5],[1,0.5]];portConstraint=eastwest;" vertex="1" parent="MxUl4SSNpLDomFaE2vCG-4">
          <mxGeometry y="53" width="180" height="27" as="geometry" />
        </mxCell>
        <mxCell id="MxUl4SSNpLDomFaE2vCG-12" value="row 2, cell 1" style="shape=partialRectangle;html=1;whiteSpace=wrap;connectable=0;fillColor=none;top=0;left=0;bottom=0;right=0;overflow=hidden;" vertex="1" parent="MxUl4SSNpLDomFaE2vCG-11">
          <mxGeometry width="90" height="27" as="geometry">
            <mxRectangle width="90" height="27" as="alternateBounds" />
          </mxGeometry>
        </mxCell>
        <mxCell id="MxUl4SSNpLDomFaE2vCG-13" value="link" style="shape=partialRectangle;html=1;whiteSpace=wrap;connectable=0;fillColor=none;top=0;left=0;bottom=0;right=0;overflow=hidden;" vertex="1" parent="MxUl4SSNpLDomFaE2vCG-11">
          <mxGeometry x="90" width="90" height="27" as="geometry">
            <mxRectangle width="90" height="27" as="alternateBounds" />
          </mxGeometry>
        </mxCell>
        <mxCell id="MxUl4SSNpLDomFaE2vCG-25" value="Add" style="strokeWidth=1;shadow=0;dashed=0;align=center;html=1;shape=mxgraph.mockup.buttons.button;strokeColor=#666666;fontColor=#ffffff;mainText=;buttonStyle=round;fontSize=17;fontStyle=1;fillColor=#008cff;whiteSpace=wrap;" vertex="1" parent="MxUl4SSNpLDomFaE2vCG-1">
          <mxGeometry x="300" y="190" width="80" height="30" as="geometry" />
        </mxCell>
        <mxCell id="MxUl4SSNpLDomFaE2vCG-28" value="Show 5" style="strokeWidth=1;shadow=0;dashed=0;align=center;html=1;shape=mxgraph.mockup.forms.comboBox;strokeColor=#999999;fillColor=#ddeeff;align=left;fillColor2=#aaddff;mainText=;fontColor=#666666;fontSize=17;spacingLeft=3;" vertex="1" parent="MxUl4SSNpLDomFaE2vCG-1">
          <mxGeometry x="20" y="140" width="150" height="30" as="geometry" />
        </mxCell>
        <mxCell id="MxUl4SSNpLDomFaE2vCG-26" value="&lt;h1 style=&quot;margin-top: 0px;&quot;&gt;CHD-8 Diabetes Study for AllofUs&lt;/h1&gt;&lt;p&gt;Lorem ipsum dolor sit amet, consectetur adipisicing elit, sed do eiusmod tempor incididunt ut labore et dolore magna aliqua.&lt;/p&gt;" style="text;html=1;whiteSpace=wrap;overflow=hidden;rounded=0;" vertex="1" parent="1">
          <mxGeometry x="50" y="10" width="430" height="120" as="geometry" />
        </mxCell>
        <mxCell id="MxUl4SSNpLDomFaE2vCG-27" value="Inputs:&lt;div&gt;Entity ID (&lt;span style=&quot;background-color: initial;&quot;&gt;Project ID, Protocol ID, Person ID)&lt;/span&gt;&lt;/div&gt;&lt;div&gt;&lt;span style=&quot;background-color: initial;&quot;&gt;Entity Type (Project, Protocol, Person)&lt;/span&gt;&lt;/div&gt;&lt;div&gt;&lt;span style=&quot;background-color: initial;&quot;&gt;&lt;br&gt;&lt;/span&gt;&lt;/div&gt;&lt;div&gt;&lt;span style=&quot;background-color: initial;&quot;&gt;NumberOfItemsToDisplay (integer, number of rows in the grid)&lt;/span&gt;&lt;/div&gt;&lt;div&gt;&lt;span style=&quot;background-color: initial;&quot;&gt;Page#&lt;/span&gt;&lt;/div&gt;&lt;div&gt;&lt;span style=&quot;background-color: initial;&quot;&gt;&lt;br&gt;&lt;/span&gt;&lt;/div&gt;&lt;div&gt;&lt;span style=&quot;background-color: initial;&quot;&gt;&lt;br&gt;&lt;/span&gt;&lt;/div&gt;&lt;div&gt;&lt;span style=&quot;background-color: initial;&quot;&gt;&lt;br&gt;&lt;/span&gt;&lt;/div&gt;&lt;div&gt;&lt;br&gt;&lt;/div&gt;" style="text;html=1;align=left;verticalAlign=top;whiteSpace=wrap;rounded=0;" vertex="1" parent="1">
          <mxGeometry x="510" y="190" width="290" height="270" as="geometry" />
        </mxCell>
        <mxCell id="MxUl4SSNpLDomFaE2vCG-30" value="" style="edgeStyle=orthogonalEdgeStyle;rounded=0;orthogonalLoop=1;jettySize=auto;html=1;entryX=0.25;entryY=0;entryDx=0;entryDy=0;" edge="1" parent="1" source="MxUl4SSNpLDomFaE2vCG-25" target="MxUl4SSNpLDomFaE2vCG-31">
          <mxGeometry relative="1" as="geometry">
            <mxPoint x="400" y="475" as="targetPoint" />
          </mxGeometry>
        </mxCell>
        <mxCell id="MxUl4SSNpLDomFaE2vCG-31" value="Opens &quot;Create New Data Request&quot; Page&lt;div&gt;Send in &amp;amp; Pre-populate ProjectID on new DR&lt;/div&gt;&lt;div&gt;AND when DR is created, nav the user back to the Project Page&lt;/div&gt;" style="rounded=0;whiteSpace=wrap;html=1;" vertex="1" parent="1">
          <mxGeometry x="400" y="520" width="230" height="120" as="geometry" />
        </mxCell>
      </root>
    </mxGraphModel>
  </diagram>
</mxfile>
